<svg width="800" height="800" viewBox="0 0 800 800" fill="none" xmlns="http://www.w3.org/2000/svg">
<path d="M360.294 497.716C319.726 498.574 285.459 487.76 257.495 465.276C228.029 441.531 212.876 409.73 212.035 369.873C211.26 333.153 223.46 294.959 248.635 255.291C277.196 210.014 311.024 186.962 350.118 186.135C369.297 185.729 391.811 190.423 417.662 200.215C449.095 212.287 464.987 226.628 465.338 243.235C465.528 252.276 462.563 260.369 456.441 267.514C449.962 275.22 441.467 279.184 430.956 279.406C423.027 279.573 413.349 275.531 401.92 267.281C390.673 258.842 373.893 254.859 351.58 255.331C337.381 255.631 322.277 269.887 306.268 298.101C290.977 325.376 283.539 348.794 283.953 368.353C284.362 387.727 291.691 402.803 305.939 413.578C319.438 423.815 337.068 428.704 358.828 428.244C371.183 427.983 386.205 422.958 403.893 413.17C421.581 403.381 432.823 398.436 437.618 398.334C447.576 398.124 456.135 401.543 463.294 408.591C470.638 415.635 474.408 423.771 474.602 432.997C474.905 447.39 459.534 462.113 428.49 477.168C400.729 490.493 377.997 497.342 360.294 497.716Z" fill="#E02BB8"/>
<path d="M516.482 192.77C504.68 193.019 494.362 189.269 485.527 181.518C476.877 173.761 472.429 164.071 472.183 152.447C471.939 140.822 475.974 130.952 484.289 122.839C492.783 114.537 502.932 110.261 514.735 110.011C526.536 109.763 536.856 113.606 545.695 121.541C554.529 129.293 559.069 138.981 559.315 150.606C559.561 162.23 555.434 172.102 546.934 180.219C538.435 188.337 528.284 192.521 516.482 192.77ZM511.292 576.117C510.883 556.743 506.669 505.697 498.65 422.978C490.632 340.26 486.459 291.151 486.13 275.652C485.897 264.58 488.914 254.548 495.181 245.555C502.531 235.431 512.2 230.243 524.186 229.989C532.669 229.81 541.212 232.491 549.815 238.032C559.168 244.111 564.114 251.206 564.654 259.317C567.612 294.514 571.735 345.654 577.025 412.739C583.894 502.126 587.543 556.969 587.972 577.267C588.536 604.022 580.664 628.741 564.354 651.422C546.251 676.542 523.369 689.395 495.709 689.979C451.083 690.922 413.812 660.142 383.897 597.64C381.002 591.609 379.498 585.918 379.385 580.567C379.171 570.418 383.042 561.567 391.001 554.015C398.787 547.02 407.843 543.414 418.169 543.196C429.971 542.946 440.524 549.091 449.829 561.633C456.781 573.411 463.763 585.17 470.775 596.911C478.42 609.487 486.207 615.691 494.136 615.524C503.726 615.321 509.445 602.186 511.292 576.117Z" fill="#E02BB8"/>
<path d="M373.493 463.504C363.29 480.836 369.217 575.861 388.438 606.551L413.417 575.67L373.493 463.504Z" fill="#E02BB8"/>
<path d="M467.504 448.398C440.104 457.879 436.596 544.291 461.853 581.88L411.785 573.862L356.771 471.48L467.504 448.398Z" fill="#E02BB8"/>
</svg>
