<svg width="800" height="800" viewBox="0 0 800 800" fill="none" xmlns="http://www.w3.org/2000/svg">
<path d="M402.651 199.623C438.071 164.872 477.645 145.794 521.373 142.391C567.493 138.85 607.606 154.476 641.713 189.266C673.136 221.319 694.234 265.555 705.007 321.975C717.46 386.227 706.619 435.097 672.486 468.586C655.743 485.015 631.76 499.698 600.537 512.635C562.432 528.218 536.275 528.762 522.064 514.265C514.328 506.372 510.196 496.68 509.668 485.188C508.991 472.898 513.241 462.252 522.418 453.248C529.342 446.455 541.345 441.945 558.429 439.719C575.511 437.811 593.793 427.3 613.274 408.185C625.671 396.022 627.194 370.672 617.84 332.134C608.632 295.033 595.66 267.946 578.923 250.873C562.343 233.96 543.198 226.675 521.487 229.017C500.895 231.209 481.1 241.625 462.102 260.266C451.315 270.85 442.139 287.91 434.574 311.446C427.011 334.984 421.135 348.806 416.948 352.913C408.255 361.444 397.77 365.569 385.494 365.29C373.056 365.169 362.889 361.082 354.995 353.029C342.679 340.466 344.048 314.475 359.101 275.057C372.679 239.933 387.196 214.788 402.651 199.623Z" fill="#E02BB8"/>
<path d="M518.742 602.056C529.047 591.946 541.378 586.642 555.734 586.144C569.93 585.803 582.002 590.706 591.95 600.854C601.897 611.001 606.562 623.171 605.946 637.363C605.327 651.874 599.865 664.185 589.561 674.295C579.256 684.405 566.847 689.628 552.332 689.965C537.976 690.464 525.824 685.64 515.876 675.492C505.928 665.343 501.343 653.095 502.12 638.746C502.898 624.397 508.438 612.167 518.742 602.056ZM202.531 256.306C219.11 273.218 265.585 315.148 341.958 382.096C418.33 449.046 463.148 489.285 476.411 502.815C485.885 512.479 491.594 523.941 493.538 537.2C495.464 552.374 491.194 565.095 480.73 575.364C473.323 582.629 463.469 587.399 451.169 589.672C437.749 592.095 427.405 589.921 420.136 583.149C388.045 554.281 341.57 512.191 280.713 456.88C199.784 383.028 150.635 337.242 133.266 319.524C110.37 296.17 96.6944 267.56 92.2386 233.696C87.3411 196.159 96.9676 165.543 121.118 141.848C160.081 103.62 219.041 99.8067 297.999 130.407C305.625 133.353 311.728 137.161 316.307 141.832C324.991 150.691 328.95 161.818 328.182 175.211C327.1 187.963 322.052 198.762 313.036 207.608C302.732 217.717 288.187 221.085 269.404 217.712C253.354 213.047 237.293 208.424 221.219 203.842C203.884 199.048 191.755 200.047 184.832 206.84C176.46 215.053 182.36 231.542 202.531 256.306Z" fill="#E02BB8"/>
<path d="M419.527 241.15C414.11 217.166 329.302 137.505 286.493 126.277L290.09 174.705L419.527 241.15Z" fill="#E02BB8"/>
<path d="M348.428 333.365C364.9 301.966 295.704 222.069 241.747 209.755L293.054 174.948L427.749 220.038L348.428 333.365Z" fill="#E02BB8"/>
</svg>
